<svg width="16" height="16" viewBox="0 0 16 16" fill="none" xmlns="http://www.w3.org/2000/svg">
<path d="M9.9375 6.28125C9.9375 6.17351 9.9803 6.07017 10.0565 5.99399C10.1327 5.9178 10.236 5.875 10.3438 5.875H11.1562C11.264 5.875 11.3673 5.9178 11.4435 5.99399C11.5197 6.07017 11.5625 6.17351 11.5625 6.28125V7.09375C11.5625 7.20149 11.5197 7.30483 11.4435 7.38101C11.3673 7.4572 11.264 7.5 11.1562 7.5H10.3438C10.236 7.5 10.1327 7.4572 10.0565 7.38101C9.9803 7.30483 9.9375 7.20149 9.9375 7.09375V6.28125Z" fill="#AA139B"/>
<path d="M3.84375 1C3.95149 1 4.05483 1.0428 4.13101 1.11899C4.2072 1.19517 4.25 1.29851 4.25 1.40625V1.8125H10.75V1.40625C10.75 1.29851 10.7928 1.19517 10.869 1.11899C10.9452 1.0428 11.0485 1 11.1562 1C11.264 1 11.3673 1.0428 11.4435 1.11899C11.5197 1.19517 11.5625 1.29851 11.5625 1.40625V1.8125H12.375C12.806 1.8125 13.2193 1.9837 13.524 2.28845C13.8288 2.5932 14 3.00652 14 3.4375V12.375C14 12.806 13.8288 13.2193 13.524 13.524C13.2193 13.8288 12.806 14 12.375 14H2.625C2.19402 14 1.7807 13.8288 1.47595 13.524C1.1712 13.2193 1 12.806 1 12.375V3.4375C1 3.00652 1.1712 2.5932 1.47595 2.28845C1.7807 1.9837 2.19402 1.8125 2.625 1.8125H3.4375V1.40625C3.4375 1.29851 3.4803 1.19517 3.55649 1.11899C3.63267 1.0428 3.73601 1 3.84375 1V1ZM1.8125 4.25V12.375C1.8125 12.5905 1.8981 12.7972 2.05048 12.9495C2.20285 13.1019 2.40951 13.1875 2.625 13.1875H12.375C12.5905 13.1875 12.7972 13.1019 12.9495 12.9495C13.1019 12.7972 13.1875 12.5905 13.1875 12.375V4.25H1.8125Z" fill="#AA139B"/>
</svg>
