<svg width="16" height="16" viewBox="0 0 16 16" fill="none" xmlns="http://www.w3.org/2000/svg">
<path d="M7.57143 0.999996C10.6486 0.999996 13.1429 3.49428 13.1429 6.57142C13.1429 8.92571 11.4886 11.4914 8.22286 14.296C8.04127 14.452 7.80975 14.5377 7.57036 14.5375C7.33097 14.5372 7.0996 14.4512 6.91829 14.2949L6.70229 14.1074C3.58114 11.376 2 8.87314 2 6.57142C2 3.49428 4.49429 0.999996 7.57143 0.999996ZM7.57143 1.85714C6.32112 1.85714 5.12203 2.35382 4.23793 3.23792C3.35383 4.12202 2.85714 5.32112 2.85714 6.57142C2.85714 8.57257 4.31314 10.8783 7.26514 13.4611L7.47829 13.6457C7.5042 13.668 7.53725 13.6803 7.57143 13.6803C7.60561 13.6803 7.63866 13.668 7.66457 13.6457C10.7594 10.9874 12.2857 8.62 12.2857 6.57142C12.2857 5.95234 12.1638 5.33931 11.9269 4.76735C11.6899 4.19538 11.3427 3.67568 10.9049 3.23792C10.4672 2.80016 9.94747 2.45291 9.37551 2.21599C8.80354 1.97908 8.19052 1.85714 7.57143 1.85714ZM7.57143 4.42857C8.13975 4.42857 8.68479 4.65433 9.08666 5.0562C9.48852 5.45806 9.71429 6.0031 9.71429 6.57142C9.71429 7.13975 9.48852 7.68479 9.08666 8.08665C8.68479 8.48852 8.13975 8.71428 7.57143 8.71428C7.00311 8.71428 6.45806 8.48852 6.0562 8.08665C5.65434 7.68479 5.42857 7.13975 5.42857 6.57142C5.42857 6.0031 5.65434 5.45806 6.0562 5.0562C6.45806 4.65433 7.00311 4.42857 7.57143 4.42857ZM7.57143 5.28571C7.23044 5.28571 6.90341 5.42117 6.66229 5.66229C6.42117 5.90341 6.28571 6.23043 6.28571 6.57142C6.28571 6.91242 6.42117 7.23944 6.66229 7.48056C6.90341 7.72168 7.23044 7.85714 7.57143 7.85714C7.91242 7.85714 8.23945 7.72168 8.48057 7.48056C8.72168 7.23944 8.85714 6.91242 8.85714 6.57142C8.85714 6.23043 8.72168 5.90341 8.48057 5.66229C8.23945 5.42117 7.91242 5.28571 7.57143 5.28571Z" fill="#AA139B"/>
</svg>
