<svg width="9" height="10" viewBox="0 0 9 10" fill="none" xmlns="http://www.w3.org/2000/svg">
<path d="M4.5 9.375C3.45571 9.375 2.45419 8.91406 1.71577 8.09359C0.977342 7.27312 0.5625 6.16032 0.5625 5C0.5625 3.83968 0.977342 2.72688 1.71577 1.90641C2.45419 1.08594 3.45571 0.625 4.5 0.625C5.54429 0.625 6.54581 1.08594 7.28423 1.90641C8.02266 2.72688 8.4375 3.83968 8.4375 5C8.4375 6.16032 8.02266 7.27312 7.28423 8.09359C6.54581 8.91406 5.54429 9.375 4.5 9.375ZM4.5 10C5.69347 10 6.83807 9.47322 7.68198 8.53553C8.52589 7.59785 9 6.32608 9 5C9 3.67392 8.52589 2.40215 7.68198 1.46447C6.83807 0.526784 5.69347 0 4.5 0C3.30653 0 2.16193 0.526784 1.31802 1.46447C0.474106 2.40215 0 3.67392 0 5C0 6.32608 0.474106 7.59785 1.31802 8.53553C2.16193 9.47322 3.30653 10 4.5 10Z" fill="#6495ED"/>
<path d="M6.17094 3.10624C6.16693 3.11056 6.16317 3.11515 6.15969 3.11999L4.20613 5.88562L3.02881 4.57687C2.94884 4.49407 2.84306 4.44899 2.73377 4.45113C2.62447 4.45328 2.5202 4.50247 2.4429 4.58835C2.36561 4.67424 2.32133 4.7901 2.3194 4.91154C2.31747 5.03298 2.35804 5.15051 2.43256 5.23937L3.92094 6.89374C3.96103 6.93821 4.00878 6.97325 4.06133 6.99678C4.11388 7.0203 4.17015 7.03182 4.22679 7.03065C4.28344 7.02949 4.33929 7.01566 4.39102 6.98999C4.44274 6.96432 4.48929 6.92733 4.52787 6.88124L6.77338 3.76249C6.84984 3.67332 6.89164 3.5543 6.88975 3.43116C6.88786 3.30802 6.84243 3.19065 6.76328 3.10443C6.68413 3.0182 6.57762 2.97006 6.46677 2.9704C6.35593 2.97074 6.24966 3.01954 6.17094 3.10624Z" fill="#6495ED"/>
</svg>
