<svg width="9" height="10" viewBox="0 0 9 10" fill="none" xmlns="http://www.w3.org/2000/svg">
<path d="M4.5 9.375C3.45571 9.375 2.45419 8.91406 1.71577 8.09359C0.977342 7.27312 0.5625 6.16032 0.5625 5C0.5625 3.83968 0.977342 2.72688 1.71577 1.90641C2.45419 1.08594 3.45571 0.625 4.5 0.625C5.54429 0.625 6.54581 1.08594 7.28423 1.90641C8.02266 2.72688 8.4375 3.83968 8.4375 5C8.4375 6.16032 8.02266 7.27312 7.28423 8.09359C6.54581 8.91406 5.54429 9.375 4.5 9.375ZM4.5 10C5.69347 10 6.83807 9.47322 7.68198 8.53553C8.52589 7.59785 9 6.32608 9 5C9 3.67392 8.52589 2.40215 7.68198 1.46447C6.83807 0.526784 5.69347 0 4.5 0C3.30653 0 2.16193 0.526784 1.31802 1.46447C0.474106 2.40215 0 3.67392 0 5C0 6.32608 0.474106 7.59785 1.31802 8.53553C2.16193 9.47322 3.30653 10 4.5 10Z" fill="#AA139B"/>
<path d="M6.17069 3.10624C6.16669 3.11056 6.16293 3.11515 6.15944 3.11999L4.20588 5.88562L3.02857 4.57687C2.94859 4.49407 2.84282 4.44899 2.73352 4.45113C2.62423 4.45328 2.51995 4.50247 2.44266 4.58835C2.36536 4.67424 2.32109 4.7901 2.31916 4.91154C2.31723 5.03298 2.3578 5.15051 2.43232 5.23937L3.92069 6.89374C3.96079 6.93821 4.00854 6.97325 4.06108 6.99678C4.11363 7.0203 4.16991 7.03182 4.22655 7.03065C4.28319 7.02949 4.33904 7.01566 4.39077 6.98999C4.4425 6.96432 4.48905 6.92733 4.52763 6.88124L6.77313 3.76249C6.84959 3.67332 6.8914 3.5543 6.88951 3.43116C6.88762 3.30802 6.84219 3.19065 6.76304 3.10443C6.68389 3.0182 6.57737 2.97006 6.46653 2.9704C6.35569 2.97074 6.24942 3.01954 6.17069 3.10624Z" fill="#AA139B"/>
</svg>
