<svg width="16" height="16" viewBox="0 0 16 16" fill="none" xmlns="http://www.w3.org/2000/svg">
<path d="M8.00033 7.99999C9.84127 7.99999 11.3337 6.50761 11.3337 4.66666C11.3337 2.82571 9.84127 1.33333 8.00033 1.33333C6.15938 1.33333 4.66699 2.82571 4.66699 4.66666C4.66699 6.50761 6.15938 7.99999 8.00033 7.99999Z" stroke="#AA139B"/>
<path d="M11.3335 9.33333H11.5682C12.0556 9.33347 12.5262 9.51157 12.8915 9.83418C13.2568 10.1568 13.4918 10.6017 13.5522 11.0853L13.8129 13.168C13.8363 13.3556 13.8196 13.5461 13.7638 13.7267C13.708 13.9074 13.6144 14.0741 13.4893 14.2159C13.3641 14.3576 13.2103 14.4711 13.0379 14.5488C12.8655 14.6265 12.6786 14.6667 12.4895 14.6667H3.51087C3.32179 14.6667 3.13487 14.6265 2.9625 14.5488C2.79013 14.4711 2.63627 14.3576 2.51112 14.2159C2.38597 14.0741 2.29239 13.9074 2.23661 13.7267C2.18082 13.5461 2.16409 13.3556 2.18754 13.168L2.44754 11.0853C2.508 10.6015 2.74315 10.1564 3.10876 9.83374C3.47437 9.5111 3.94525 9.33314 4.43287 9.33333H4.66687" stroke="#AA139B" stroke-linecap="round" stroke-linejoin="round"/>
</svg>
