<svg width="24" height="24" viewBox="0 0 24 24" fill="none" xmlns="http://www.w3.org/2000/svg">
<path fill-rule="evenodd" clip-rule="evenodd" d="M3 4.8C3 3.804 3.8052 3 4.8 3H19.2C20.1948 3 21 3.804 21 4.8V15.5916C21 16.5876 20.1948 17.3916 19.2 17.3916H12.2004L7.56 20.868C7.47086 20.9349 7.36486 20.9756 7.25388 20.9856C7.14291 20.9956 7.03134 20.9745 6.93167 20.9247C6.83201 20.8748 6.74819 20.7982 6.68961 20.7034C6.63103 20.6087 6.6 20.4994 6.6 20.388V17.3904H4.8C3.8052 17.3904 3 16.5864 3 15.5904V4.8ZM7.8 7.7964H16.2V8.9964H7.8V7.7964ZM7.8 11.394H13.8V12.594H7.8V11.394Z" fill="black"/>
</svg>
