<svg width="24" height="24" viewBox="0 0 24 24" fill="none" xmlns="http://www.w3.org/2000/svg">
<path d="M12.614 2.21072C12.4385 2.07417 12.2224 2.00003 12 2.00003C11.7776 2.00003 11.5615 2.07417 11.386 2.21072L3.158 8.61072C2.79716 8.89142 2.50524 9.25087 2.30455 9.66162C2.10385 10.0724 1.99968 10.5236 2 10.9807V20.0007C2 20.5312 2.21071 21.0399 2.58579 21.4149C2.96086 21.79 3.46957 22.0007 4 22.0007H8C8.53043 22.0007 9.03914 21.79 9.41421 21.4149C9.78929 21.0399 10 20.5312 10 20.0007V14.0007H14V20.0007C14 20.5312 14.2107 21.0399 14.5858 21.4149C14.9609 21.79 15.4696 22.0007 16 22.0007H20C20.5304 22.0007 21.0391 21.79 21.4142 21.4149C21.7893 21.0399 22 20.5312 22 20.0007V10.9807C22.0001 10.5234 21.8956 10.0721 21.6946 9.66134C21.4935 9.25058 21.2012 8.89122 20.84 8.61072L12.614 2.21072Z" fill="black"/>
</svg>
