<svg width="24" height="24" viewBox="0 0 24 24" fill="none" xmlns="http://www.w3.org/2000/svg">
<path d="M15.375 9.75C15.375 10.6451 15.0194 11.5036 14.3865 12.1365C13.7536 12.7694 12.8951 13.125 12 13.125C11.1049 13.125 10.2464 12.7694 9.61351 12.1365C8.98058 11.5036 8.625 10.6451 8.625 9.75C8.625 8.85489 8.98058 7.99645 9.61351 7.36351C10.2464 6.73058 11.1049 6.375 12 6.375C12.8951 6.375 13.7536 6.73058 14.3865 7.36351C15.0194 7.99645 15.375 8.85489 15.375 9.75Z" fill="black"/>
<path d="M5.25 3C4.65326 3 4.08097 3.23705 3.65901 3.65901C3.23705 4.08097 3 4.65326 3 5.25L3 18.75C3 19.3467 3.23705 19.919 3.65901 20.341C4.08097 20.7629 4.65326 21 5.25 21H18.75C19.3467 21 19.919 20.7629 20.341 20.341C20.7629 19.919 21 19.3467 21 18.75V5.25C21 4.65326 20.7629 4.08097 20.341 3.65901C19.919 3.23705 19.3467 3 18.75 3H5.25ZM18.75 4.125C19.0484 4.125 19.3345 4.24353 19.5455 4.4545C19.7565 4.66548 19.875 4.95163 19.875 5.25V18.75C19.875 19.0484 19.7565 19.3345 19.5455 19.5455C19.3345 19.7565 19.0484 19.875 18.75 19.875V18.75C18.75 17.625 17.625 14.25 12 14.25C6.375 14.25 5.25 17.625 5.25 18.75V19.875C4.95163 19.875 4.66548 19.7565 4.4545 19.5455C4.24353 19.3345 4.125 19.0484 4.125 18.75V5.25C4.125 4.95163 4.24353 4.66548 4.4545 4.4545C4.66548 4.24353 4.95163 4.125 5.25 4.125H18.75Z" fill="black"/>
</svg>
